<?xml version="1.0" encoding="UTF-8"?>
<svg id="Layer_2" data-name="Layer 2" xmlns="http://www.w3.org/2000/svg" viewBox="0 0 451.48 503.57">
  <defs>
    <style>
      .cls-1 {
        fill: #000;
      }

      .cls-1, .cls-2 {
        stroke-width: 0px;
      }

      .cls-2 {
        fill: #999;
      }
    </style>
  </defs>
  <g id="Layer_1-2" data-name="Layer 1">
    <path class="cls-2" d="M242.01,481.12c-2.95,0-5.81-1.53-7.39-4.27-2.35-4.08-.96-9.29,3.12-11.65l196.68-113.55v-222.19L242.01,18.37,45.32,131.93c-4.08,2.36-9.29.96-11.65-3.12-2.35-4.08-.96-9.29,3.12-11.65L237.74,1.14c2.64-1.52,5.89-1.52,8.53,0l200.95,116.02c2.64,1.52,4.26,4.34,4.26,7.39v232.03c0,3.05-1.63,5.86-4.26,7.39l-200.95,116.02c-1.34.77-2.81,1.14-4.26,1.14Z"/>
    <path class="cls-1" d="M215.22,439.89l-144.3-83.31,144.3-83.31,13.32,23.06,66.9-86.34-108.22,14.77,13.08,22.65-144.3,83.31v-166.62h26.63L41.32,63,0,164.11h26.16v192.47c0,5.52,3.01,10.33,7.47,12.91h0s166.68,96.24,166.68,96.24l-13.32,23.06,108.22,14.77-66.9-86.34-13.08,22.65Z"/>
  </g>
</svg>